HIERARCHY
ROOT Hips
{
	OFFSET 0.00000 0.00000 0.00000
	CHANNELS 6 Xposition Yposition Zposition Yrotation Zrotation Xrotation 
	JOINT Lumbar
	{
		OFFSET 0 0 0
		CHANNELS 3 Zrotation Xrotation Yrotation
		JOINT Neck
		{
			OFFSET 0.00 0.2701 0.00
			CHANNELS 3 Zrotation Xrotation Yrotation
			End Site
			{
				OFFSET 0.00 0.1379 0.00
			}
		}
		JOINT RightShoulder
		{
			OFFSET 0.0119 0.2289 0.1181
			CHANNELS 3 Zrotation Xrotation Yrotation
			JOINT RightElbow
			{
				OFFSET 0.00 -0.1475 0.00
				CHANNELS 2 Zrotation Yrotation
				JOINT RightWrist
				{
					OFFSET 0.00 -0.1605 0.00
					CHANNELS 2 Zrotation Xrotation
					End Site
					{
						OFFSET 0.0040 -0.1068 0.0006
					}
				}
			}
		}
		JOINT LeftShoulder
		{
			OFFSET 0.0119 0.2289 -0.1181
			CHANNELS 3 Zrotation Xrotation Yrotation
			JOINT LeftElbow
			{
				OFFSET 0.00 -0.1475 0.00
				CHANNELS 2 Zrotation Yrotation
				JOINT LeftWrist
				{
					OFFSET 0.00 -0.1605 0.00
					CHANNELS 2 Zrotation Xrotation
					End Site
					{
						OFFSET 0.0040 -0.1068 -0.0006
					}
				}
			}
		}
	}
	JOINT RightHip
	{
		OFFSET 0.0316 -0.0424 0.0458
		CHANNELS 3 Zrotation Xrotation Yrotation
		JOINT RightKnee
		{
			OFFSET 0.00 -0.2438 0.00
			CHANNELS 1 Zrotation
			JOINT RightAnkle
			{
				OFFSET 0.00 -0.2449 0.00
				CHANNELS 3 Zrotation Xrotation Yrotation
				End Site
				{
					OFFSET 0.1237 -0.0542 0.0051
				}
			}
		}
	}
	JOINT LeftHip
	{
		OFFSET 0.0316 -0.0424 -0.0458
		CHANNELS 3 Zrotation Xrotation Yrotation
		JOINT LeftKnee
		{
			OFFSET 0.00 -0.2438 0.00
			CHANNELS 1 Zrotation
			JOINT LeftAnkle
			{
				OFFSET 0.00 -0.2449 0.00
				CHANNELS 3 Zrotation Xrotation Yrotation
				End Site
				{
					OFFSET 0.1237 -0.0542 -0.0051
				}
			}
		}
	}
}
MOTION
Frames: 31
Frame Time: 0.02
0.05743 0.58197 -0.06937 200.89584 0 -3.47045 4.22512 5.38325 -3.37092 -8.87376 0.50189 -1.46999 12.32852 -26.4025 -38.39367 108.97613 151.02112 23.70121 13.32199 -12.49328 8.09987 19.36865 103.83501 -130.42862 31.43977 -5.23102 -3.92903 8.31086 17.94799 -4.51506 -0.20138 -2.03734 -18.81021 -2.41151 1.20354 -17.06205 -8.40488 6.40773 4.26018 6.2092
0.05732 0.58199 -0.06936 200.35112 0 -3.49302 4.00846 5.57865 -3.49218 -8.35055 0.13096 -1.78118 12.53745 -26.58657 -42.40517 109.56616 147.40385 21.54275 12.66635 -13.52075 8.40827 20.17296 103.93401 -130.53528 31.96796 -5.36586 -3.89511 8.21685 16.12889 -4.49293 -0.19242 -2.30843 -16.52409 -2.49151 1.20575 -16.6515 -8.38316 6.43969 4.31346 6.3051
0.0572 0.58201 -0.06935 199.73037 0 -3.51689 3.79418 5.8306 -3.58872 -7.77951 -0.25058 -2.08504 12.76684 -26.6286 -46.47412 109.83388 142.77815 19.39351 11.8999 -14.57519 8.74746 20.93562 104.03911 -130.6027 32.6052 -5.52177 -3.84763 8.08012 13.39098 -4.4716 -0.17355 -2.75984 -13.24948 -2.58079 1.2041 -16.18033 -8.36049 6.47783 4.37721 6.41268
0.05708 0.58203 -0.06934 199.14568 0 -3.54003 3.5826 6.05533 -3.70202 -7.24962 -0.60415 -2.38931 12.97535 -26.76325 -50.43658 110.22874 138.29075 17.17649 11.19359 -15.5903 9.04868 21.70516 104.13387 -130.68469 33.17678 -5.65649 -3.80791 7.96665 11.17117 -4.44946 -0.16084 -3.10649 -10.52538 -2.66649 1.20403 -15.73818 -8.33759 6.51307 4.43595 6.51511
0.05698 0.58205 -0.06933 198.54995 0 -3.56405 3.35378 6.28802 -3.79283 -6.63636 -1.05648 -2.70744 13.23605 -26.78406 -54.75329 110.70179 135.07163 15.20611 10.43375 -16.72416 9.4527 22.52964 104.26053 -130.78147 33.82518 -5.83808 -3.76147 7.83752 8.54326 -4.42895 -0.1416 -3.54457 -7.38607 -2.75037 1.20492 -15.28636 -8.31692 6.54883 4.49597 6.6176
0.05684 0.58206 -0.06931 197.96107 0 -3.58647 3.16203 6.517 -3.92426 -6.18742 -1.30446 -2.99368 13.39262 -27.00475 -58.33528 110.93728 129.05463 12.7472 9.76544 -17.61306 9.64887 23.22625 104.32183 -130.83719 34.33379 -5.9291 -3.72554 7.73059 6.53851 -4.40562 -0.13331 -3.83806 -4.86975 -2.83965 1.20279 -14.84178 -8.29191 6.58504 4.55577 6.7225
0.05658 0.58206 -0.06925 197.40866 0 -3.60365 3.07039 6.72155 -4.17381 -6.18252 -0.99677 -3.20261 13.2407 -27.83052 -59.93378 110.58949 114.92249 8.75621 9.35594 -17.85077 9.27048 23.60458 104.20678 -130.79617 34.45953 -5.74944 -3.72501 7.69601 6.50875 -4.37074 -0.15921 -3.67397 -4.34511 -2.94453 1.19336 -14.43035 -8.25141 6.61939 4.61182 6.83068
0.05629 0.58205 -0.06916 196.86694 0 -3.61919 3.01623 6.92029 -4.46463 -6.34636 -0.48223 -3.37813 12.9831 -28.85662 -60.77933 110.01561 98.13327 4.30776 9.04723 -17.83717 8.68164 23.85095 104.02536 -130.71409 34.43553 -5.48071 -3.73499 7.68505 7.13036 -4.33363 -0.19617 -3.3613 -4.47499 -3.05381 1.18093 -14.02933 -8.20733 6.65413 4.66729 6.94077
0.05602 0.58204 -0.06909 196.32124 0 -3.63584 2.94643 7.12162 -4.73701 -6.44979 -0.05342 -3.56274 12.78695 -29.78095 -61.92819 109.54935 82.97868 0.18802 8.70835 -17.91454 8.18286 24.14117 103.86994 -130.64578 34.4582 -5.26321 -3.73819 7.66282 7.43252 -4.29989 -0.22696 -3.12647 -4.28404 -3.15915 1.16979 -13.62483 -8.16736 6.68983 4.72345 7.0503
0.05573 0.58203 -0.06901 195.76772 0 -3.65119 2.87167 7.32495 -5.00875 -6.49201 0.34532 -3.77204 12.54532 -30.75344 -63.2397 109.05005 65.97801 -4.44166 8.30165 -18.08142 7.70362 24.4975 103.7298 -130.5956 34.57033 -5.00178 -3.74934 7.64138 7.80192 -4.25633 -0.26205 -2.85429 -4.15612 -3.27335 1.15893 -13.21187 -8.11683 6.72137 4.77847 7.15929
0.05548 0.58202 -0.06894 195.23577 0 -3.66858 2.81503 7.52225 -5.29001 -6.69092 0.84937 -3.92304 12.35997 -31.66528 -64.03741 108.57156 52.21385 -8.11782 8.0588 -18.01385 7.1397 24.68599 103.54514 -130.49987 34.46506 -4.8095 -3.74663 7.62443 8.19772 -4.23255 -0.29116 -2.62231 -4.06689 -3.36959 1.14669 -12.82105 -8.0875 6.76105 4.83522 7.2693
0.05537 0.58197 -0.06888 194.74746 0 -3.69417 2.80892 7.70142 -5.60457 -7.38154 1.65127 -3.91294 12.46938 -32.44617 -63.55844 108.19444 47.95614 -9.05771 8.2691 -17.25539 6.33768 24.4371 103.22653 -130.27607 33.7448 -4.8377 -3.70333 7.61469 8.51173 -4.26473 -0.29916 -2.53688 -3.91458 -3.41882 1.13257 -12.47925 -8.11688 6.82763 4.89983 7.38459
0.05532 0.58191 -0.06883 194.28404 0 -3.72143 2.81808 7.87466 -5.9245 -8.20652 2.54194 -3.84691 12.61908 -33.14486 -62.59484 107.84961 47.05989 -9.02664 8.63659 -16.28797 5.46757 24.02498 102.87037 -130.01047 32.82029 -4.93701 -3.64588 7.6088 8.83304 -4.31655 -0.30115 -2.49631 -3.78552 -3.4491 1.11702 -12.1619 -8.16769 6.90143 4.96551 7.50004
0.05525 0.58187 -0.06878 193.81754 0 -3.74653 2.8137 8.05264 -6.2305 -8.90316 3.35345 -3.81196 12.67414 -33.82456 -61.88178 107.49936 44.69258 -9.42683 8.91614 -15.4864 4.66556 23.69219 102.54938 -129.77214 32.02194 -4.99857 -3.59464 7.60095 9.15317 -4.35904 -0.30717 -2.43481 -3.65705 -3.48559 1.10128 -11.83941 -8.20932 6.96901 5.02878 7.61365
0.05513 0.5818 -0.06871 193.31393 0 -3.7776 2.83788 8.22314 -6.58522 -9.88563 4.33349 -3.7519 13.04242 -34.74496 -61.01897 107.10279 42.02455 -9.8605 9.26911 -14.38159 3.701 23.33401 102.15007 -129.49692 31.07627 -5.07997 -3.54412 7.59467 9.48846 -4.40386 -0.3081 -2.37048 -3.50321 -3.53233 1.08872 -11.49033 -8.24905 7.04935 5.10046 7.73552
0.05513 0.58177 -0.06868 192.89675 0 -3.79651 2.80647 8.40622 -6.84074 -10.30759 4.98408 -3.73134 12.77598 -35.14704 -60.35728 106.81231 40.77636 -10.01889 9.50482 -13.85602 3.05952 22.99046 101.90529 -129.28975 30.39268 -5.13812 -3.4893 7.58587 9.78295 -4.44768 -0.31803 -2.32468 -3.39993 -3.5532 1.06956 -11.20445 -8.29714 7.10441 5.15452 7.83931
0.05544 0.58183 -0.06872 192.68398 0 -3.78253 2.6112 8.63933 -6.80732 -9.10553 4.67498 -3.83314 10.69 -34.09289 -60.41897 106.81673 42.99162 -9.38334 9.38122 -15.03207 3.34551 22.73797 102.10149 -129.27571 30.46619 -5.11496 -3.41998 7.56795 9.98509 -4.49137 -0.35446 -2.31925 -3.42578 -3.50683 1.02986 -11.06925 -8.3697 7.09137 5.16272 7.90063
0.05586 0.58192 -0.0688 192.5628 0 -3.75607 2.36058 8.88258 -6.676 -7.34316 4.03573 -3.97681 7.97561 -32.52751 -60.69351 106.9256 46.47197 -8.55026 9.13329 -16.78847 3.95636 22.50428 102.45393 -129.3326 30.81311 -5.06648 -3.3478 7.54754 10.13982 -4.53219 -0.40007 -2.33178 -3.50078 -3.43499 0.98409 -11.00038 -8.44895 7.05207 5.15257 7.94233
0.05623 0.58199 -0.06887 192.41775 0 -3.73458 2.13935 9.11231 -6.59857 -5.86347 3.56482 -4.10176 5.58614 -31.22459 -60.843 106.98204 49.13843 -7.98632 8.93969 -18.24899 4.40757 22.2559 102.73181 -129.36068 31.04797 -5.02967 -3.28097 7.52883 10.29701 -4.56924 -0.44126 -2.33651 -3.55147 -3.3753 0.94288 -10.91247 -8.5205 7.0224 5.14885 7.9881
0.05661 0.58207 -0.0689 192.19754 0 -3.71603 1.90044 9.38009 -6.48264 -4.26544 3.01892 -4.22361 3.02963 -29.79121 -61.09804 107.06263 52.90103 -6.64132 8.76025 -19.84414 4.90781 22.02862 103.02322 -129.3734 31.22908 -4.99402 -3.19691 7.50754 10.53044 -4.62768 -0.48326 -2.34057 -3.60607 -3.31318 0.894 -10.77742 -8.61149 7.00236 5.15333 8.05441
0.05699 0.58215 -0.06903 192.15665 0 -3.68843 1.68544 9.5703 -6.42238 -2.78502 2.55083 -4.36237 0.67417 -28.50983 -61.18595 107.11453 54.67298 -6.87654 8.5204 -21.29141 5.38292 21.76284 103.3242 -129.43477 31.58354 -4.94974 -3.14781 7.4914 10.5999 -4.64154 -0.52587 -2.35052 -3.67088 -3.24949 0.85965 -10.75741 -8.66452 6.95636 5.13626 8.07318
0.05734 0.58224 -0.06939 192.57662 0 -3.63839 1.54631 9.55063 -6.54996 -1.71515 2.36782 -4.53909 -0.99628 -27.76821 -60.80044 107.08492 50.31878 -11.62902 8.13827 -22.25863 5.71752 21.39746 103.61172 -129.61822 32.40254 -4.88182 -3.19963 7.48637 10.17363 -4.52498 -0.56739 -2.36546 -3.6902 -3.19484 0.867 -11.02642 -8.6006 6.84154 5.06515 7.96651
0.05769 0.58233 -0.06985 193.17572 0 -3.57975 1.43378 9.45124 -6.73509 -0.7922 2.27633 -4.73075 -2.43788 -27.19879 -60.23473 107.01779 43.95882 -17.95989 7.70048 -23.04506 6.01341 20.99174 103.90344 -129.84646 33.37641 -4.80699 -3.28609 7.48728 9.5941 -4.3651 -0.60926 -2.38669 -3.72925 -3.13828 0.8891 -11.41096 -8.50011 6.70217 4.97291 7.81265
0.05804 0.58242 -0.07027 193.70079 0 -3.5254 1.31142 9.38397 -6.88708 0.16546 2.14899 -4.91572 -3.96948 -26.55388 -59.72733 106.95314 38.71245 -23.50884 7.29053 -23.86915 6.32316 20.5975 104.19526 -130.05235 34.24754 -4.73875 -3.35438 7.48791 9.12041 -4.23017 -0.65143 -2.40948 -3.79974 -3.07793 0.90444 -11.75076 -8.42313 6.57628 4.88955 7.67952
0.05838 0.58251 -0.07068 194.19897 0 -3.46905 1.17756 9.33463 -7.06486 1.27924 1.98463 -5.10437 -5.5844 -25.87833 -59.3253 106.95594 32.66675 -29.3391 6.86336 -24.90086 6.66405 20.23143 104.48633 -130.27322 35.27021 -4.65458 -3.43287 7.47828 8.49218 -4.07276 -0.69225 -2.4147 -3.70209 -3.03617 0.92002 -12.06063 -8.31728 6.4395 4.80814 7.54808
0.05873 0.5826 -0.07113 194.7932 0 -3.41495 1.07473 9.22861 -7.20427 2.02402 1.92505 -5.28499 -6.96039 -25.3155 -58.65995 106.8051 27.78336 -34.94082 6.46327 -25.45013 6.9215 19.79854 104.77501 -130.46744 36.00357 -4.60292 -3.49829 7.49139 8.15018 -3.95212 -0.73551 -2.45725 -3.95781 -2.95582 0.93842 -12.45876 -8.26281 6.32015 4.7185 7.40296
0.0591 0.58264 -0.07167 195.61933 0 -3.36963 1.0511 8.98771 -7.22098 1.79687 2.1205 -5.46815 -7.75185 -25.01485 -57.29685 106.26206 26.67098 -39.70229 6.1273 -24.70537 7.00045 19.17417 105.08022 -130.59685 35.94619 -4.63633 -3.52011 7.56638 8.63163 -3.94163 -0.78818 -2.6052 -5.18828 -2.76761 0.96327 -13.07745 -8.35862 6.25294 4.60585 7.22486
0.05946 0.58268 -0.07225 196.53337 0 -3.32688 1.0581 8.69207 -7.19835 1.19835 2.42262 -5.63695 -8.30271 -24.82684 -55.67674 105.56008 26.77838 -44.14871 5.8254 -23.48032 6.98714 18.48527 105.37745 -130.6772 35.57411 -4.7035 -3.52748 7.66386 9.40488 -3.96982 -0.84261 -2.78945 -6.77002 -2.54124 0.99013 -13.77943 -8.50727 6.20457 4.48666 7.03585
0.05982 0.58271 -0.07281 197.39999 0 -3.28269 1.05131 8.42008 -7.19568 0.76008 2.68471 -5.79384 -8.94958 -24.59282 -54.18284 104.91635 26.2732 -48.62261 5.52476 -22.47529 6.98669 17.83905 105.66184 -130.78788 35.32506 -4.76011 -3.54075 7.75084 10.05097 -3.98184 -0.89456 -2.95468 -8.19166 -2.33348 1.01452 -14.43988 -8.63227 6.14907 4.37421 6.85657
0.0602 0.58276 -0.07338 198.30501 0 -3.23925 1.04472 8.15053 -7.18512 0.35397 2.91204 -6.03018 -9.65044 -24.33743 -52.64281 104.33371 25.9416 -53.63421 5.15247 -21.45387 7.1081 17.14212 106.01647 -130.93465 35.19987 -4.79828 -3.55773 7.83967 10.67938 -3.98715 -0.95414 -3.13165 -9.62714 -2.11975 1.04572 -15.12094 -8.75523 6.08685 4.24542 6.65608
0.06054 0.58277 -0.07393 199.14785 0 -3.19508 1.04481 7.86387 -7.18221 -0.20667 3.23858 -6.09611 -10.17798 -24.15762 -51.14044 103.5824 25.56811 -57.43761 4.93691 -20.35866 6.95387 16.52715 106.22224 -130.9082 34.69738 -4.88043 -3.56351 7.92936 11.40249 -4.01527 -0.99761 -3.29164 -11.10292 -1.91007 1.06334 -15.7761 -8.89449 6.04316 4.149 6.49704
